<svg width="74mm" height="74mm" version="1.1" viewBox="0 0 74 74" fill_color="blue" back_color="yellow" xmlns="http://www.w3.org/2000/svg"><path d="M8,8H10V10H8zM10,8H12V10H10zM12,8H14V10H12zM14,8H16V10H14zM16,8H18V10H16zM18,8H20V10H18zM20,8H22V10H20zM24,8H26V10H24zM36,8H38V10H36zM38,8H40V10H38zM42,8H44V10H42zM44,8H46V10H44zM48,8H50V10H48zM52,8H54V10H52zM54,8H56V10H54zM56,8H58V10H56zM58,8H60V10H58zM60,8H62V10H60zM62,8H64V10H62zM64,8H66V10H64zM8,10H10V12H8zM20,10H22V12H20zM24,10H26V12H24zM30,10H32V12H30zM32,10H34V12H32zM42,10H44V12H42zM46,10H48V12H46zM48,10H50V12H48zM52,10H54V12H52zM64,10H66V12H64zM8,12H10V14H8zM12,12H14V14H12zM14,12H16V14H14zM16,12H18V14H16zM20,12H22V14H20zM24,12H26V14H24zM26,12H28V14H26zM32,12H34V14H32zM36,12H38V14H36zM38,12H40V14H38zM40,12H42V14H40zM42,12H44V14H42zM52,12H54V14H52zM56,12H58V14H56zM58,12H60V14H58zM60,12H62V14H60zM64,12H66V14H64zM8,14H10V16H8zM12,14H14V16H12zM14,14H16V16H14zM16,14H18V16H16zM20,14H22V16H20zM24,14H26V16H24zM26,14H28V16H26zM28,14H30V16H28zM32,14H34V16H32zM38,14H40V16H38zM44,14H46V16H44zM48,14H50V16H48zM52,14H54V16H52zM56,14H58V16H56zM58,14H60V16H58zM60,14H62V16H60zM64,14H66V16H64zM8,16H10V18H8zM12,16H14V18H12zM14,16H16V18H14zM16,16H18V18H16zM20,16H22V18H20zM26,16H28V18H26zM28,16H30V18H28zM32,16H34V18H32zM36,16H38V18H36zM38,16H40V18H38zM40,16H42V18H40zM52,16H54V18H52zM56,16H58V18H56zM58,16H60V18H58zM60,16H62V18H60zM64,16H66V18H64zM8,18H10V20H8zM20,18H22V20H20zM24,18H26V20H24zM26,18H28V20H26zM28,18H30V20H28zM42,18H44V20H42zM44,18H46V20H44zM46,18H48V20H46zM48,18H50V20H48zM52,18H54V20H52zM64,18H66V20H64zM8,20H10V22H8zM10,20H12V22H10zM12,20H14V22H12zM14,20H16V22H14zM16,20H18V22H16zM18,20H20V22H18zM20,20H22V22H20zM24,20H26V22H24zM28,20H30V22H28zM32,20H34V22H32zM36,20H38V22H36zM40,20H42V22H40zM44,20H46V22H44zM48,20H50V22H48zM52,20H54V22H52zM54,20H56V22H54zM56,20H58V22H56zM58,20H60V22H58zM60,20H62V22H60zM62,20H64V22H62zM64,20H66V22H64zM28,22H30V24H28zM30,22H32V24H30zM34,22H36V24H34zM38,22H40V24H38zM40,22H42V24H40zM42,22H44V24H42zM44,22H46V24H44zM8,24H10V26H8zM10,24H12V26H10zM16,24H18V26H16zM18,24H20V26H18zM20,24H22V26H20zM28,24H30V26H28zM32,24H34V26H32zM34,24H36V26H34zM40,24H42V26H40zM42,24H44V26H42zM46,24H48V26H46zM54,24H56V26H54zM58,24H60V26H58zM60,24H62V26H60zM62,24H64V26H62zM64,24H66V26H64zM8,26H10V28H8zM10,26H12V28H10zM12,26H14V28H12zM14,26H16V28H14zM16,26H18V28H16zM18,26H20V28H18zM22,26H24V28H22zM34,26H36V28H34zM36,26H38V28H36zM38,26H40V28H38zM40,26H42V28H40zM52,26H54V28H52zM54,26H56V28H54zM56,26H58V28H56zM58,26H60V28H58zM60,26H62V28H60zM62,26H64V28H62zM64,26H66V28H64zM14,28H16V30H14zM20,28H22V30H20zM24,28H26V30H24zM26,28H28V30H26zM28,28H30V30H28zM38,28H40V30H38zM42,28H44V30H42zM44,28H46V30H44zM48,28H50V30H48zM56,28H58V30H56zM64,28H66V30H64zM8,30H10V32H8zM10,30H12V32H10zM12,30H14V32H12zM16,30H18V32H16zM18,30H20V32H18zM24,30H26V32H24zM26,30H28V32H26zM32,30H34V32H32zM36,30H38V32H36zM38,30H40V32H38zM40,30H42V32H40zM42,30H44V32H42zM56,30H58V32H56zM58,30H60V32H58zM62,30H64V32H62zM64,30H66V32H64zM8,32H10V34H8zM12,32H14V34H12zM18,32H20V34H18zM20,32H22V34H20zM22,32H24V34H22zM30,32H32V34H30zM34,32H36V34H34zM36,32H38V34H36zM42,32H44V34H42zM46,32H48V34H46zM48,32H50V34H48zM50,32H52V34H50zM62,32H64V34H62zM10,34H12V36H10zM12,34H14V36H12zM14,34H16V36H14zM16,34H18V36H16zM26,34H28V36H26zM28,34H30V36H28zM32,34H34V36H32zM38,34H40V36H38zM40,34H42V36H40zM52,34H54V36H52zM54,34H56V36H54zM56,34H58V36H56zM58,34H60V36H58zM60,34H62V36H60zM62,34H64V36H62zM64,34H66V36H64zM14,36H16V38H14zM16,36H18V38H16zM20,36H22V38H20zM26,36H28V38H26zM28,36H30V38H28zM30,36H32V38H30zM32,36H34V38H32zM34,36H36V38H34zM36,36H38V38H36zM38,36H40V38H38zM40,36H42V38H40zM48,36H50V38H48zM52,36H54V38H52zM56,36H58V38H56zM58,36H60V38H58zM60,36H62V38H60zM64,36H66V38H64zM8,38H10V40H8zM10,38H12V40H10zM12,38H14V40H12zM18,38H20V40H18zM22,38H24V40H22zM26,38H28V40H26zM28,38H30V40H28zM30,38H32V40H30zM34,38H36V40H34zM42,38H44V40H42zM46,38H48V40H46zM50,38H52V40H50zM52,38H54V40H52zM62,38H64V40H62zM64,38H66V40H64zM8,40H10V42H8zM14,40H16V42H14zM18,40H20V42H18zM20,40H22V42H20zM32,40H34V42H32zM34,40H36V42H34zM38,40H40V42H38zM42,40H44V42H42zM46,40H48V42H46zM50,40H52V42H50zM62,40H64V42H62zM8,42H10V44H8zM16,42H18V44H16zM18,42H20V44H18zM24,42H26V44H24zM26,42H28V44H26zM34,42H36V44H34zM36,42H38V44H36zM38,42H40V44H38zM44,42H46V44H44zM50,42H52V44H50zM52,42H54V44H52zM54,42H56V44H54zM56,42H58V44H56zM58,42H60V44H58zM62,42H64V44H62zM64,42H66V44H64zM16,44H18V46H16zM18,44H20V46H18zM20,44H22V46H20zM22,44H24V46H22zM24,44H26V46H24zM38,44H40V46H38zM40,44H42V46H40zM42,44H44V46H42zM44,44H46V46H44zM50,44H52V46H50zM52,44H54V46H52zM60,44H62V46H60zM64,44H66V46H64zM12,46H14V48H12zM16,46H18V48H16zM18,46H20V48H18zM24,46H26V48H24zM32,46H34V48H32zM36,46H38V48H36zM38,46H40V48H38zM42,46H44V48H42zM44,46H46V48H44zM48,46H50V48H48zM50,46H52V48H50zM54,46H56V48H54zM56,46H58V48H56zM62,46H64V48H62zM64,46H66V48H64zM8,48H10V50H8zM10,48H12V50H10zM14,48H16V50H14zM20,48H22V50H20zM26,48H28V50H26zM28,48H30V50H28zM30,48H32V50H30zM34,48H36V50H34zM36,48H38V50H36zM40,48H42V50H40zM42,48H44V50H42zM46,48H48V50H46zM48,48H50V50H48zM50,48H52V50H50zM52,48H54V50H52zM54,48H56V50H54zM56,48H58V50H56zM58,48H60V50H58zM64,48H66V50H64zM24,50H26V52H24zM26,50H28V52H26zM32,50H34V52H32zM38,50H40V52H38zM40,50H42V52H40zM44,50H46V52H44zM46,50H48V52H46zM48,50H50V52H48zM56,50H58V52H56zM64,50H66V52H64zM8,52H10V54H8zM10,52H12V54H10zM12,52H14V54H12zM14,52H16V54H14zM16,52H18V54H16zM18,52H20V54H18zM20,52H22V54H20zM30,52H32V54H30zM32,52H34V54H32zM34,52H36V54H34zM36,52H38V54H36zM38,52H40V54H38zM42,52H44V54H42zM46,52H48V54H46zM48,52H50V54H48zM52,52H54V54H52zM56,52H58V54H56zM58,52H60V54H58zM60,52H62V54H60zM64,52H66V54H64zM8,54H10V56H8zM20,54H22V56H20zM24,54H26V56H24zM26,54H28V56H26zM30,54H32V56H30zM34,54H36V56H34zM38,54H40V56H38zM40,54H42V56H40zM42,54H44V56H42zM44,54H46V56H44zM46,54H48V56H46zM48,54H50V56H48zM56,54H58V56H56zM64,54H66V56H64zM8,56H10V58H8zM12,56H14V58H12zM14,56H16V58H14zM16,56H18V58H16zM20,56H22V58H20zM24,56H26V58H24zM26,56H28V58H26zM32,56H34V58H32zM34,56H36V58H34zM38,56H40V58H38zM42,56H44V58H42zM46,56H48V58H46zM48,56H50V58H48zM50,56H52V58H50zM52,56H54V58H52zM54,56H56V58H54zM56,56H58V58H56zM58,56H60V58H58zM62,56H64V58H62zM8,58H10V60H8zM12,58H14V60H12zM14,58H16V60H14zM16,58H18V60H16zM20,58H22V60H20zM26,58H28V60H26zM34,58H36V60H34zM36,58H38V60H36zM38,58H40V60H38zM40,58H42V60H40zM42,58H44V60H42zM44,58H46V60H44zM48,58H50V60H48zM50,58H52V60H50zM54,58H56V60H54zM64,58H66V60H64zM8,60H10V62H8zM12,60H14V62H12zM14,60H16V62H14zM16,60H18V62H16zM20,60H22V62H20zM28,60H30V62H28zM38,60H40V62H38zM40,60H42V62H40zM42,60H44V62H42zM44,60H46V62H44zM50,60H52V62H50zM58,60H60V62H58zM60,60H62V62H60zM62,60H64V62H62zM64,60H66V62H64zM8,62H10V64H8zM20,62H22V64H20zM24,62H26V64H24zM32,62H34V64H32zM36,62H38V64H36zM38,62H40V64H38zM42,62H44V64H42zM44,62H46V64H44zM48,62H50V64H48zM52,62H54V64H52zM58,62H60V64H58zM62,62H64V64H62zM64,62H66V64H64zM8,64H10V66H8zM10,64H12V66H10zM12,64H14V66H12zM14,64H16V66H14zM16,64H18V66H16zM18,64H20V66H18zM20,64H22V66H20zM24,64H26V66H24zM26,64H28V66H26zM30,64H32V66H30zM34,64H36V66H34zM36,64H38V66H36zM38,64H40V66H38zM42,64H44V66H42zM48,64H50V66H48zM50,64H52V66H50zM54,64H56V66H54zM58,64H60V66H58zM62,64H64V66H62z" id="qr-path" fill="#000000" fill-opacity="1" fill-rule="nonzero" stroke="none" /></svg>